<svg width="40" height="40" viewBox="0 0 40 40" fill="none" xmlns="http://www.w3.org/2000/svg">
<rect x="33" y="14" width="18" height="26" rx="1" transform="rotate(90 33 14)" stroke="#0000FF" stroke-width="2"/>
<mask id="path-2-inside-1_156_1208" fill="white">
<path fill-rule="evenodd" clip-rule="evenodd" d="M30 15C30 10.5817 25.5228 7 20 7C14.4772 7 10 10.5817 10 15H30Z"/>
</mask>
<path d="M30 15V17H32V15H30ZM10 15H8V17H10V15ZM20 9C24.8578 9 28 12.0797 28 15H32C32 9.08376 26.1879 5 20 5V9ZM12 15C12 12.0797 15.1422 9 20 9V5C13.8121 5 8 9.08376 8 15H12ZM10 17H30V13H10V17Z" fill="#0000FF" mask="url(#path-2-inside-1_156_1208)"/>
</svg>
