<svg xmlns="http://www.w3.org/2000/svg" width="590" height="514" fill="none"><path fill="#00F" d="M104.479 353.478c-9.602 0-17.871-2.264-24.806-6.793-6.935-4.528-12.27-10.766-16.004-18.713-3.734-7.948-5.601-17.027-5.601-27.238 0-10.389 1.911-19.557 5.734-27.504 3.868-7.992 9.247-14.23 16.138-18.714 6.935-4.528 15.026-6.793 24.272-6.793 7.202 0 13.692 1.332 19.472 3.996 5.779 2.664 10.513 6.393 14.203 11.188 3.69 4.795 5.979 10.389 6.868 16.783h-15.737c-1.2-4.662-3.867-8.791-8.002-12.387-4.09-3.641-9.602-5.461-16.537-5.461-6.135 0-11.514 1.598-16.137 4.795-4.58 3.152-8.158 7.614-10.736 13.385-2.534 5.728-3.801 12.454-3.801 20.179 0 7.903 1.244 14.784 3.734 20.645 2.534 5.86 6.09 10.411 10.67 13.652 4.623 3.241 10.046 4.862 16.27 4.862 4.09 0 7.802-.711 11.136-2.132 3.334-1.42 6.157-3.463 8.469-6.126 2.311-2.664 3.956-5.861 4.934-9.59h15.737c-.889 6.038-3.089 11.477-6.601 16.316-3.468 4.795-8.069 8.613-13.804 11.454-5.69 2.797-12.314 4.196-19.871 4.196ZM241.699 309.525v-60.47h15.737v102.292h-15.737v-17.315h-1.067c-2.401 5.194-6.135 9.612-11.203 13.252-5.068 3.597-11.469 5.395-19.204 5.395-6.402 0-12.092-1.399-17.071-4.196-4.979-2.841-8.891-7.103-11.736-12.786-2.846-5.728-4.268-12.942-4.268-21.644v-64.998h15.737v63.933c0 7.458 2.089 13.408 6.268 17.847 4.223 4.44 9.603 6.66 16.137 6.66 3.913 0 7.891-.999 11.937-2.997 4.09-1.998 7.513-5.061 10.269-9.19 2.801-4.129 4.201-9.39 4.201-15.783ZM295.649 389.706V249.055h15.203v16.25h1.867c1.156-1.776 2.757-4.04 4.802-6.793 2.089-2.797 5.068-5.283 8.935-7.459 3.912-2.22 9.202-3.33 15.871-3.33 8.624 0 16.226 2.154 22.805 6.46 6.58 4.307 11.714 10.411 15.404 18.314 3.69 7.903 5.535 17.226 5.535 27.97 0 10.833-1.845 20.223-5.535 28.171-3.69 7.902-8.802 14.029-15.337 18.38-6.535 4.307-14.07 6.46-22.606 6.46-6.579 0-11.847-1.088-15.803-3.263-3.957-2.22-7.002-4.729-9.136-7.526-2.134-2.841-3.779-5.194-4.935-7.059h-1.333v54.076h-15.737Zm15.47-89.505c0 7.725 1.134 14.54 3.401 20.445 2.267 5.861 5.579 10.456 9.936 13.785 4.356 3.286 9.691 4.929 16.004 4.929 6.579 0 12.069-1.732 16.47-5.195 4.446-3.507 7.78-8.213 10.003-14.118 2.267-5.95 3.4-12.565 3.4-19.846 0-7.192-1.111-13.674-3.334-19.446-2.178-5.816-5.49-10.411-9.935-13.785-4.401-3.419-9.936-5.128-16.604-5.128-6.402 0-11.781 1.62-16.138 4.861-4.356 3.197-7.646 7.681-9.869 13.453-2.223 5.727-3.334 12.409-3.334 20.045ZM492.016 271.964l-14.136 3.996c-.889-2.353-2.201-4.639-3.935-6.859-1.689-2.265-4.001-4.129-6.935-5.594-2.934-1.465-6.69-2.198-11.269-2.198-6.268 0-11.492 1.443-15.671 4.329-4.134 2.841-6.201 6.46-6.201 10.855 0 3.907 1.423 6.992 4.268 9.257 2.845 2.264 7.29 4.151 13.336 5.66l15.204 3.73c9.158 2.22 15.982 5.616 20.472 10.189 4.49 4.528 6.735 10.367 6.735 17.515 0 5.86-1.69 11.099-5.068 15.716-3.335 4.618-8.002 8.258-14.004 10.922-6.001 2.664-12.981 3.996-20.938 3.996-10.447 0-19.094-2.264-25.94-6.793-6.846-4.528-11.18-11.144-13.003-19.846l14.937-3.729c1.423 5.505 4.112 9.634 8.069 12.387 4.001 2.753 9.224 4.129 15.67 4.129 7.335 0 13.159-1.554 17.471-4.662 4.357-3.152 6.535-6.926 6.535-11.321 0-3.552-1.245-6.527-3.734-8.924-2.49-2.442-6.313-4.262-11.47-5.461l-17.071-3.996c-9.38-2.219-16.27-5.66-20.671-10.322-4.357-4.706-6.535-10.589-6.535-17.648 0-5.772 1.622-10.877 4.868-15.317 3.289-4.44 7.757-7.925 13.403-10.456 5.69-2.53 12.136-3.796 19.338-3.796 10.136 0 18.093 2.22 23.872 6.66 5.824 4.44 9.958 10.3 12.403 17.581Z"/><path fill="#00F" fill-rule="evenodd" d="m60.39 271.592.004-.008c4.142-8.558 9.962-15.344 17.476-20.234 7.62-4.975 16.449-7.407 26.342-7.407 7.677 0 14.72 1.422 21.058 4.343 6.306 2.907 11.536 7.012 15.619 12.317 4.116 5.35 6.643 11.569 7.616 18.566l.598 4.301h-23.021l-.731-2.839c-.984-3.822-3.183-7.312-6.822-10.477l-.016-.014-.016-.015c-3.227-2.872-7.757-4.502-14.018-4.502-5.439 0-10.05 1.404-13.983 4.122l-.006.005c-3.93 2.705-7.09 6.583-9.425 11.807-2.275 5.146-3.475 11.329-3.475 18.644 0 7.509 1.183 13.864 3.43 19.157 2.295 5.305 5.438 9.265 9.37 12.05 3.92 2.746 8.563 4.171 14.089 4.171 3.644 0 6.842-.632 9.65-1.828 2.82-1.202 5.169-2.907 7.093-5.126 1.897-2.186 3.289-4.849 4.134-8.071l.74-2.823h23.042l-.637 4.331c-.976 6.626-3.403 12.639-7.28 17.981-3.856 5.332-8.949 9.535-15.188 12.626l-.011.006c-6.301 3.097-13.516 4.584-21.543 4.584-10.219 0-19.234-2.418-26.878-7.409-7.56-4.936-13.346-11.73-17.36-20.272-4.005-8.526-5.96-18.168-5.96-28.844 0-10.856 2-20.6 6.109-29.142Zm77.763 66.236a36.05 36.05 0 0 0 5.854-12.535c.309-1.233.558-2.494.748-3.781h-15.737c-.978 3.729-2.623 6.926-4.935 9.59-2.311 2.664-5.134 4.706-8.468 6.127-3.334 1.42-7.046 2.131-11.136 2.131-6.224 0-11.648-1.621-16.271-4.862-4.579-3.241-8.135-7.792-10.67-13.652-2.489-5.861-3.733-12.742-3.733-20.645 0-7.725 1.266-14.451 3.8-20.178 2.579-5.772 6.157-10.234 10.736-13.386 4.624-3.197 10.003-4.795 16.138-4.795 6.935 0 12.447 1.82 16.537 5.461 4.134 3.596 6.802 7.725 8.002 12.387h15.737a39.735 39.735 0 0 0-.711-3.781c-1.161-4.843-3.214-9.176-6.157-13.002-3.69-4.795-8.425-8.524-14.204-11.188-5.779-2.664-12.269-3.996-19.471-3.996-9.247 0-17.338 2.265-24.273 6.793-6.89 4.484-12.27 10.722-16.137 18.714-3.823 7.947-5.735 17.115-5.735 27.504 0 10.211 1.867 19.291 5.602 27.238 3.734 7.947 9.069 14.185 16.004 18.713 6.935 4.529 15.203 6.793 24.806 6.793 7.557 0 14.181-1.399 19.871-4.196 5.735-2.841 10.336-6.659 13.803-11.454Zm99.76-92.554h23.309v109.854h-23.309v-10.301c-1.843 2.006-3.937 3.849-6.273 5.527l-.018.013c-5.85 4.151-13.071 6.093-21.398 6.093-6.971 0-13.315-1.529-18.927-4.681l-.022-.013c-5.698-3.252-10.102-8.104-13.244-14.378l-.005-.011c-3.181-6.403-4.662-14.239-4.662-23.324v-68.779h21.803v67.714c0 6.718 1.359 11.14 4.733 14.728 3.456 3.631 9.822 5.998 15.392 5.998 3.247 0 6.654-.825 10.258-2.605l.015-.007c3.434-1.678 6.363-4.267 8.783-7.891l.007-.012.008-.012c2.271-3.348 3.55-7.813 3.55-13.662v-64.251Zm-38.758 85.561c-4.179-4.439-7.774-10.389-7.774-17.847v-63.933H177.15v64.998c0 8.702 1.422 15.917 4.267 21.644 2.845 5.683 6.758 9.945 11.736 12.786 4.979 2.797 10.67 4.196 17.071 4.196 7.736 0 14.137-1.798 19.205-5.394 3.444-2.474 6.272-5.307 8.484-8.498a31.667 31.667 0 0 0 2.719-4.755h1.067v17.315h15.737V249.055h-15.737v60.47c0 6.393-1.401 11.654-4.201 15.783-2.757 4.129-6.18 7.192-10.27 9.19-4.045 1.998-8.024 2.997-11.936 2.997-6.535 0-11.914-2.22-16.137-6.66Zm92.708 62.652V245.274h22.775v10.776c2.464-3.229 5.835-5.97 9.954-8.288 4.692-2.66 10.707-3.819 17.734-3.819 9.288 0 17.626 2.329 24.881 7.078 7.232 4.733 12.806 11.411 16.76 19.878 3.971 8.506 5.889 18.397 5.889 29.569 0 11.255-1.916 21.211-5.886 29.76l-.003.007c-3.949 8.459-9.493 15.152-16.668 19.929l-.015.01c-7.21 4.751-15.484 7.085-24.691 7.085-6.946 0-12.916-1.14-17.63-3.732l-.014-.008-.014-.008c-3.99-2.239-7.291-4.84-9.764-7.861v47.837h-23.308Zm19.523-57.857h1.333a73.948 73.948 0 0 0 2.452 3.664 149.962 149.962 0 0 0 2.483 3.395c2.134 2.797 5.179 5.306 9.135 7.526 3.957 2.175 9.225 3.263 15.804 3.263 8.536 0 16.071-2.153 22.606-6.46 6.535-4.351 11.647-10.478 15.337-18.38 3.689-7.948 5.534-17.338 5.534-28.17 0-10.745-1.845-20.068-5.534-27.971-3.69-7.903-8.825-14.007-15.404-18.314-6.579-4.306-14.181-6.46-22.806-6.46-6.668 0-11.958 1.11-15.87 3.33-3.868 2.176-6.846 4.662-8.936 7.459a194.702 194.702 0 0 0-2.882 3.973 94.643 94.643 0 0 0-1.919 2.82h-1.867v-16.25h-15.204v140.651h15.738V335.63Zm52.003-16.914.005-.014c2.082-5.463 3.153-11.614 3.153-18.501 0-6.803-1.05-12.815-3.081-18.089l-.007-.016-.006-.016c-1.957-5.226-4.868-9.206-8.68-12.1l-.017-.013-.017-.013c-3.613-2.807-8.283-4.331-14.28-4.331-5.737 0-10.283 1.44-13.875 4.112l-.02.015c-3.692 2.709-6.576 6.566-8.578 11.763l-.003.009c-2.018 5.2-3.078 11.401-3.078 18.679 0 7.359 1.08 13.698 3.147 19.086 2.052 5.302 4.974 9.288 8.695 12.135 3.598 2.71 8.094 4.157 13.712 4.157 5.883 0 10.505-1.534 14.126-4.382 3.844-3.033 6.795-7.145 8.804-12.481Zm-6.459 15.449c-4.401 3.463-9.891 5.195-16.471 5.195-6.312 0-11.647-1.643-16.004-4.929-4.356-3.329-7.668-7.924-9.935-13.785-2.268-5.905-3.401-12.72-3.401-20.445 0-7.636 1.111-14.318 3.334-20.045 2.223-5.772 5.512-10.256 9.869-13.453 4.357-3.241 9.736-4.861 16.137-4.861 6.669 0 12.203 1.709 16.604 5.128 4.446 3.374 7.758 7.969 9.936 13.785 2.223 5.772 3.334 12.254 3.334 19.446 0 7.281-1.133 13.896-3.401 19.846-2.222 5.905-5.557 10.611-10.002 14.118Zm139.938-59.643-21.303 6.022-1.228-3.249c-.739-1.957-1.85-3.914-3.377-5.869l-.026-.033-.025-.033c-1.283-1.72-3.102-3.228-5.592-4.472-2.243-1.119-5.366-1.798-9.576-1.798-5.681 0-10.106 1.302-13.518 3.658l-.007.004c-3.275 2.251-4.561 4.78-4.561 7.741 0 2.855.972 4.813 2.841 6.3 2.22 1.767 6.049 3.489 11.888 4.948l.007.001 15.179 3.724.004.001c9.537 2.312 17.106 5.951 22.271 11.209 5.276 5.324 7.824 12.159 7.824 20.168 0 6.638-1.931 12.66-5.792 17.941-3.782 5.232-9.014 9.261-15.528 12.152-6.576 2.919-14.098 4.322-22.476 4.322-10.989 0-20.415-2.385-28.03-7.422-7.75-5.127-12.61-12.638-14.618-22.223l-.746-3.56 22.116-5.522.938 3.633c1.239 4.792 3.479 8.077 6.558 10.223 3.192 2.194 7.594 3.457 13.516 3.457 6.831 0 11.788-1.449 15.251-3.944 3.618-2.618 4.969-5.349 4.969-8.258 0-2.558-.85-4.54-2.577-6.202l-.012-.012-.012-.012c-1.8-1.766-4.871-3.36-9.675-4.476l-.006-.002-17.08-3.998c-9.761-2.31-17.449-6.001-22.553-11.407l-.013-.014-.012-.013c-5.072-5.478-7.541-12.309-7.541-20.215 0-6.53 1.853-12.426 5.596-17.546l.014-.02c3.72-5.021 8.73-8.892 14.896-11.656l.01-.005c6.245-2.777 13.229-4.122 20.879-4.122 10.648 0 19.519 2.328 26.175 7.439 6.453 4.921 11.017 11.422 13.689 19.38l1.263 3.76Zm-17.255-20.139c-5.779-4.44-13.737-6.66-23.872-6.66-7.202 0-13.648 1.266-19.338 3.796-5.646 2.531-10.114 6.016-13.404 10.456-3.245 4.44-4.868 9.545-4.868 15.317 0 7.059 2.179 12.942 6.535 17.648 4.401 4.662 11.292 8.103 20.672 10.322l17.071 3.996c5.157 1.199 8.98 3.019 11.469 5.461 2.49 2.398 3.735 5.372 3.735 8.924 0 4.395-2.179 8.169-6.535 11.321-4.312 3.108-10.136 4.662-17.471 4.662-6.446 0-11.67-1.376-15.671-4.129-3.956-2.753-6.646-6.882-8.068-12.387l-14.937 3.73a38.312 38.312 0 0 0 .953 3.659c2.181 6.92 6.198 12.315 12.05 16.186 6.846 4.529 15.493 6.793 25.939 6.793 7.958 0 14.937-1.332 20.939-3.996 6.001-2.664 10.669-6.304 14.003-10.922 3.379-4.617 5.068-9.856 5.068-15.716 0-7.148-2.245-12.986-6.735-17.515-4.49-4.573-11.314-7.969-20.471-10.189l-15.204-3.73c-6.046-1.509-10.492-3.396-13.337-5.66-2.845-2.264-4.267-5.35-4.267-9.257 0-4.395 2.067-8.014 6.201-10.855 4.179-2.886 9.402-4.329 15.671-4.329 4.578 0 8.335.733 11.269 2.198 2.934 1.465 5.246 3.33 6.935 5.594 1.734 2.22 3.045 4.506 3.934 6.859l14.137-3.996a40.935 40.935 0 0 0-1.372-3.541c-2.506-5.664-6.183-10.344-11.031-14.04Z" clip-rule="evenodd"/><path fill="#00F" d="M36.858 237.919 5.651 135.627h16.537l22.139 78.317h1.067l21.872-78.317H84.07l21.605 78.051h1.067l22.139-78.051h16.537L114.21 237.919H98.74l-22.405-78.584h-1.6l-22.406 78.584h-15.47ZM191.349 176.384v61.535h-15.737V101.53h15.737v50.08h1.334c2.4-5.283 6.001-9.479 10.802-12.586 4.846-3.153 11.292-4.729 19.338-4.729 6.98 0 13.092 1.399 18.338 4.196 5.246 2.753 9.314 6.992 12.203 12.72 2.934 5.683 4.401 12.919 4.401 21.71v64.998h-15.737v-63.932c0-8.125-2.112-14.407-6.335-18.847-4.179-4.484-9.98-6.726-17.404-6.726-5.157 0-9.78 1.087-13.87 3.263-4.046 2.175-7.246 5.35-9.602 9.523-2.312 4.173-3.468 9.235-3.468 15.184ZM295.944 237.919V135.627h15.738v102.292h-15.738Zm8.002-119.34c-3.067 0-5.712-1.044-7.935-3.13-2.178-2.087-3.267-4.595-3.267-7.526 0-2.93 1.089-5.438 3.267-7.525 2.223-2.087 4.868-3.13 7.935-3.13 3.068 0 5.691 1.043 7.869 3.13 2.223 2.087 3.334 4.595 3.334 7.525 0 2.931-1.111 5.439-3.334 7.526-2.178 2.086-4.801 3.13-7.869 3.13ZM394.438 135.627v13.319h-53.079v-13.319h53.079Zm-37.609-24.507h15.737v97.497c0 4.439.645 7.769 1.934 9.989 1.334 2.175 3.023 3.641 5.068 4.395 2.09.711 4.29 1.066 6.602 1.066 1.733 0 3.156-.089 4.267-.267l2.668-.532 3.201 14.118c-1.067.4-2.557.799-4.468 1.199-1.912.444-4.335.666-7.269.666-4.445 0-8.802-.955-13.07-2.864-4.223-1.909-7.735-4.817-10.535-8.724-2.757-3.907-4.135-8.835-4.135-14.784V111.12ZM469.343 240.05c-9.869 0-18.382-2.176-25.539-6.527-7.113-4.395-12.603-10.522-16.471-18.38-3.823-7.903-5.735-17.093-5.735-27.571 0-10.478 1.912-19.712 5.735-27.704 3.868-8.036 9.247-14.296 16.137-18.78 6.935-4.528 15.026-6.793 24.273-6.793 5.334 0 10.602.888 15.804 2.664 5.201 1.776 9.935 4.662 14.203 8.658 4.268 3.951 7.669 9.19 10.203 15.716 2.534 6.527 3.801 14.563 3.801 24.108v6.66h-78.953v-13.586h62.949c0-5.772-1.156-10.922-3.468-15.45-2.267-4.529-5.512-8.103-9.736-10.722-4.178-2.62-9.113-3.929-14.803-3.929-6.268 0-11.692 1.554-16.271 4.661-4.534 3.064-8.024 7.06-10.469 11.988-2.445 4.928-3.668 10.211-3.668 15.85v9.057c0 7.725 1.334 14.273 4.001 19.645 2.712 5.328 6.469 9.39 11.27 12.188 4.801 2.752 10.38 4.128 16.737 4.128 4.135 0 7.869-.577 11.203-1.731 3.379-1.199 6.29-2.975 8.735-5.328 2.445-2.397 4.335-5.372 5.669-8.924l15.203 4.263c-1.6 5.15-4.29 9.678-8.068 13.585-3.779 3.863-8.447 6.882-14.004 9.057-5.557 2.131-11.803 3.197-18.738 3.197Z"/><path fill="#00F" fill-rule="evenodd" d="M34.054 241.7.539 131.846h24.514l19.788 70.002 19.55-70.002h22.56l19.295 69.706 19.772-69.706h24.511L117.014 241.7H95.882l-20.348-71.365L55.187 241.7H34.054Zm40.68-82.364h1.6l22.406 78.583h15.47l31.208-102.292H128.88l-22.138 78.051h-1.067L84.07 135.627H67.266l-21.873 78.317h-1.066l-22.14-78.317H5.652l31.207 102.292h15.47l22.406-78.583ZM195.135 241.7h-21.736V97.75h21.736v43.366a32.928 32.928 0 0 1 6.288-5.263c5.656-3.678 12.899-5.339 21.4-5.339 7.488 0 14.229 1.503 20.109 4.635 5.994 3.148 10.594 7.987 13.805 14.344 3.289 6.379 4.814 14.256 4.814 23.428V241.7h-23.309v-67.713c0-7.481-1.934-12.711-5.294-16.243l-.013-.014-.013-.014c-3.315-3.557-8.022-5.521-14.633-5.521-4.604 0-8.602.965-12.083 2.815-3.379 1.819-6.065 4.464-8.084 8.033-1.929 3.489-2.987 7.883-2.987 13.341V241.7Zm-.319-80.5c2.357-4.173 5.557-7.348 9.603-9.523 4.09-2.176 8.713-3.263 13.87-3.263 7.424 0 13.225 2.242 17.404 6.726 4.223 4.44 6.335 10.722 6.335 18.847v63.932h15.737v-64.998c0-8.791-1.467-16.027-4.401-21.71-2.89-5.727-6.957-9.967-12.203-12.72-5.246-2.797-11.358-4.196-18.338-4.196-8.046 0-14.492 1.577-19.338 4.729-3.377 2.186-6.161 4.91-8.35 8.173a30.654 30.654 0 0 0-2.452 4.413h-1.334v-50.08h-14.164v136.389h14.164v-61.535c0-5.949 1.156-11.01 3.467-15.184Zm97.343 80.5V131.846h23.308V241.7h-23.308Zm1.245-123.509-.014-.014c-2.898-2.776-4.432-6.26-4.432-10.254 0-3.993 1.534-7.477 4.432-10.254l.014-.013.014-.013c2.929-2.75 6.503-4.156 10.528-4.156 4.02 0 7.581 1.404 10.475 4.168 2.941 2.767 4.514 6.255 4.514 10.268 0 4.013-1.572 7.5-4.513 10.267-2.893 2.766-6.455 4.17-10.476 4.17-4.025 0-7.599-1.407-10.528-4.156l-.014-.013Zm18.411-2.742c2.223-2.087 3.334-4.595 3.334-7.526 0-2.93-1.111-5.438-3.334-7.525-2.178-2.087-4.801-3.13-7.869-3.13-3.067 0-5.712 1.043-7.935 3.13-2.178 2.087-3.267 4.595-3.267 7.525 0 2.931 1.089 5.439 3.267 7.526 2.223 2.086 4.868 3.13 7.935 3.13 3.068 0 5.691-1.044 7.869-3.13Zm86.409 16.397v20.881h-21.872v55.89c0 4.16.62 6.684 1.402 8.055.95 1.535 1.993 2.354 3.084 2.767 1.664.559 3.434.847 5.332.847 1.585 0 2.768-.081 3.602-.209l6.21-1.24 4.745 20.931-3.092 1.158c-1.321.495-3.012.938-4.982 1.351-2.286.526-5.007.755-8.084.755-5.006 0-9.888-1.079-14.617-3.194l-.014-.006c-4.853-2.194-8.88-5.542-12.053-9.968l-.008-.012-.008-.011c-3.306-4.686-4.826-10.426-4.826-16.962v-60.152h-15.47v-20.881h15.47v-24.507h23.309v24.507h21.872Zm-25.658 3.781h21.872v13.32h-21.872v59.67c0 4.439.645 7.769 1.934 9.989 1.334 2.175 3.023 3.641 5.068 4.395 2.089.711 4.29 1.066 6.602 1.066 1.733 0 3.156-.089 4.267-.267l2.668-.532 3.2 14.118c-1.067.4-2.556.799-4.467 1.199-1.912.444-4.335.666-7.269.666-4.445 0-8.802-.955-13.07-2.864-4.223-1.909-7.735-4.817-10.535-8.724-2.757-3.907-4.135-8.835-4.135-14.784v-63.932h-15.47v-13.32h15.47V111.12h15.737v24.507Zm69.257 101.119-.011-.007c-7.748-4.788-13.711-11.465-17.877-19.928l-.011-.023c-4.115-8.506-6.112-18.278-6.112-29.216 0-10.939 1.998-20.748 6.105-29.334l.004-.008c4.14-8.603 9.961-15.414 17.48-20.308 7.62-4.975 16.449-7.408 26.342-7.408 5.764 0 11.445.961 17.028 2.868 5.738 1.959 10.929 5.134 15.56 9.469 4.763 4.412 8.453 10.166 11.151 17.115 2.753 7.09 4.057 15.621 4.057 25.475v10.441h-74.115c.503 4.669 1.624 8.664 3.296 12.038 2.406 4.719 5.668 8.21 9.782 10.61 4.145 2.373 9.051 3.621 14.841 3.621 3.778 0 7.08-.527 9.951-1.519 2.886-1.026 5.318-2.52 7.347-4.469 2.004-1.969 3.605-4.456 4.764-7.542l1.22-3.251 22.297 6.25-1.153 3.711c-1.777 5.72-4.775 10.763-8.962 15.092l-.015.016c-4.19 4.283-9.325 7.584-15.329 9.934l-.025.01c-6.055 2.322-12.771 3.448-20.095 3.448-10.438 0-19.659-2.307-27.508-7.078l-.012-.007Zm38.723-12.546c-3.334 1.154-7.068 1.732-11.203 1.732-6.357 0-11.936-1.377-16.737-4.129-4.801-2.797-8.558-6.86-11.27-12.187-1.958-3.944-3.197-8.522-3.718-13.734a57.427 57.427 0 0 1-.248-3.781h74.383v-6.66c0-9.545-1.267-17.581-3.8-24.108-2.534-6.526-5.935-11.765-10.203-15.716-4.268-3.996-9.002-6.882-14.203-8.658-5.202-1.776-10.47-2.664-15.804-2.664-9.247 0-17.338 2.265-24.273 6.793-6.89 4.484-12.269 10.744-16.137 18.78-3.823 7.992-5.735 17.226-5.735 27.704 0 10.478 1.912 19.668 5.735 27.571 3.868 7.858 9.358 13.985 16.471 18.38 7.157 4.351 15.67 6.527 25.539 6.527 6.935 0 13.181-1.066 18.738-3.197 5.557-2.175 10.225-5.194 14.003-9.057 2.884-2.981 5.133-6.324 6.748-10.029.501-1.15.942-2.336 1.321-3.556l-15.204-4.263c-1.333 3.552-3.223 6.527-5.668 8.924-2.445 2.353-5.357 4.129-8.735 5.328Zm-43.136-45.685h58.34c0-1.291-.058-2.552-.174-3.781-.402-4.264-1.5-8.154-3.294-11.669-2.267-4.529-5.512-8.103-9.736-10.722-4.178-2.62-9.113-3.929-14.803-3.929-6.268 0-11.692 1.554-16.271 4.661-4.534 3.064-8.024 7.06-10.469 11.988a34.772 34.772 0 0 0-3.154 9.671 35.96 35.96 0 0 0-.439 3.781Zm4.285-3.781a31.061 31.061 0 0 1 2.7-7.993c2.156-4.345 5.21-7.839 9.198-10.534l.007-.004c3.871-2.627 8.53-4.008 14.143-4.008 5.09 0 9.303 1.164 12.791 3.35l.015.01c3.616 2.243 6.386 5.285 8.347 9.201l.006.013.007.013c1.508 2.955 2.476 6.259 2.863 9.952h-50.077Zm-145.751 63.185h15.738V135.627h-15.738v102.292Z" clip-rule="evenodd"/><path stroke="#00F" stroke-width="3" d="M64.78 120.2V25.47m0 0c46.089 64.246 344.973 64.246 393.856 0m-393.856 0c139.665-40.503 346.929-18.994 393.856 0m0 0v92.293m0 252.759v103.274c-64.246 40.503-293.297 60.056-393.856 0V358.341M476.415 105.587c178.499-5.811 116.066 276.37 0 284.119"/><path stroke="#00F" stroke-width="3" d="M518.408 150.056c54.985 15.809 31.556 157.504-2.869 182.095"/></svg>