<svg xmlns="http://www.w3.org/2000/svg" width="158" height="92" fill="none"><path fill="#00F" d="M32.358 79.647c-2.917 0-5.428-.689-7.535-2.066-2.106-1.377-3.727-3.274-4.86-5.691-1.135-2.417-1.702-5.179-1.702-8.284 0-3.16.58-5.948 1.742-8.365 1.174-2.43 2.808-4.328 4.901-5.692 2.107-1.377 4.564-2.066 7.373-2.066 2.187 0 4.158.406 5.914 1.216 1.755.81 3.193 1.944 4.314 3.402 1.12 1.459 1.816 3.16 2.086 5.105h-4.78c-.364-1.418-1.175-2.674-2.43-3.768-1.242-1.107-2.917-1.66-5.023-1.66-1.864 0-3.497.485-4.902 1.458-1.39.958-2.478 2.315-3.26 4.07-.77 1.743-1.155 3.788-1.155 6.138 0 2.403.378 4.496 1.134 6.278.77 1.783 1.85 3.167 3.24 4.153 1.405.985 3.052 1.478 4.943 1.478 1.242 0 2.37-.216 3.382-.648a6.978 6.978 0 0 0 2.572-1.863c.703-.81 1.202-1.783 1.5-2.917h4.78a11.072 11.072 0 0 1-2.006 4.962c-1.053 1.459-2.45 2.62-4.193 3.484-1.728.85-3.74 1.276-6.035 1.276ZM74.037 66.28V47.887h4.78v31.11h-4.78v-5.265h-.324c-.73 1.58-1.864 2.923-3.403 4.03-1.54 1.094-3.484 1.641-5.833 1.641-1.945 0-3.673-.425-5.185-1.276-1.513-.864-2.7-2.16-3.565-3.889-.864-1.742-1.296-3.936-1.296-6.582V47.889h4.78v19.443c0 2.269.634 4.078 1.904 5.429 1.282 1.35 2.916 2.025 4.901 2.025 1.188 0 2.397-.304 3.626-.911 1.242-.608 2.282-1.54 3.119-2.795.85-1.256 1.276-2.856 1.276-4.8Zm16.386 24.385V47.888h4.618v4.943h.567c.352-.54.838-1.23 1.459-2.066.634-.851 1.54-1.607 2.714-2.269 1.188-.675 2.795-1.013 4.82-1.013 2.62 0 4.929.655 6.927 1.965 1.999 1.31 3.558 3.166 4.679 5.57 1.121 2.404 1.681 5.24 1.681 8.507 0 3.294-.56 6.15-1.681 8.567-1.121 2.404-2.674 4.267-4.659 5.59-1.984 1.31-4.273 1.965-6.866 1.965-1.998 0-3.598-.33-4.8-.992-1.202-.675-2.127-1.438-2.775-2.29a30.8 30.8 0 0 1-1.499-2.146h-.405v16.446h-4.78Zm4.7-27.221c0 2.35.344 4.422 1.032 6.218.689 1.782 1.695 3.18 3.018 4.192 1.323 1 2.944 1.5 4.861 1.5 1.999 0 3.666-.527 5.003-1.58 1.35-1.067 2.363-2.499 3.038-4.294.689-1.81 1.033-3.822 1.033-6.036 0-2.188-.338-4.16-1.013-5.915-.661-1.768-1.667-3.166-3.018-4.192-1.336-1.04-3.017-1.56-5.043-1.56-1.944 0-3.578.493-4.901 1.479-1.324.972-2.323 2.336-2.998 4.091-.675 1.742-1.013 3.774-1.013 6.097Zm54.945-8.588-4.294 1.215a7.965 7.965 0 0 0-1.195-2.086c-.513-.689-1.215-1.256-2.106-1.701-.892-.446-2.033-.669-3.423-.669-1.904 0-3.491.44-4.76 1.317-1.256.864-1.884 1.965-1.884 3.301 0 1.189.432 2.127 1.296 2.816.865.688 2.215 1.262 4.051 1.721l4.618 1.134c2.782.676 4.855 1.708 6.218 3.1 1.364 1.377 2.046 3.152 2.046 5.326 0 1.782-.513 3.376-1.539 4.78-1.013 1.404-2.431 2.512-4.254 3.322-1.823.81-3.943 1.215-6.36 1.215-3.173 0-5.799-.689-7.878-2.066-2.08-1.377-3.396-3.389-3.95-6.036l4.537-1.134c.432 1.674 1.249 2.93 2.451 3.767 1.215.838 2.802 1.256 4.759 1.256 2.228 0 3.997-.472 5.307-1.418 1.323-.958 1.985-2.106 1.985-3.443 0-1.08-.378-1.985-1.134-2.714-.756-.742-1.918-1.296-3.484-1.66l-5.185-1.216c-2.849-.675-4.942-1.722-6.279-3.14-1.323-1.43-1.985-3.22-1.985-5.367 0-1.755.493-3.308 1.479-4.658.999-1.35 2.356-2.41 4.071-3.18 1.728-.77 3.686-1.154 5.874-1.154 3.078 0 5.495.675 7.251 2.025 1.768 1.35 3.024 3.133 3.767 5.347Z"/><path fill="#00F" fill-rule="evenodd" d="m18.966 54.743.001-.003c1.258-2.603 3.026-4.666 5.309-6.154 2.314-1.513 4.996-2.252 8-2.252 2.333 0 4.472.432 6.397 1.32 1.915.885 3.504 2.133 4.744 3.747 1.25 1.627 2.018 3.518 2.313 5.646l.182 1.308H38.92l-.223-.863c-.298-1.162-.966-2.224-2.072-3.187l-.005-.004-.004-.004c-.98-.874-2.356-1.37-4.258-1.37-1.652 0-3.053.427-4.247 1.254l-.002.001c-1.194.823-2.154 2.003-2.863 3.591-.691 1.566-1.055 3.446-1.055 5.67 0 2.285.359 4.217 1.041 5.827.698 1.614 1.652 2.818 2.846 3.665 1.19.835 2.601 1.268 4.28 1.268 1.107 0 2.078-.192 2.93-.556a5.828 5.828 0 0 0 2.155-1.558c.577-.665 1-1.475 1.256-2.455l.225-.859h6.999l-.194 1.317a12.222 12.222 0 0 1-2.211 5.47c-1.171 1.62-2.718 2.899-4.614 3.84h-.003c-1.914.943-4.105 1.395-6.543 1.395-3.104 0-5.842-.735-8.164-2.253-2.296-1.502-4.054-3.568-5.273-6.166-1.217-2.593-1.81-5.525-1.81-8.772 0-3.302.607-6.265 1.855-8.863Zm23.62 20.144a10.98 10.98 0 0 0 1.778-3.812c.094-.375.17-.758.227-1.15h-4.78c-.297 1.134-.797 2.106-1.499 2.917a6.978 6.978 0 0 1-2.572 1.863c-1.013.432-2.14.648-3.382.648-1.89 0-3.538-.493-4.942-1.478-1.391-.986-2.471-2.37-3.241-4.153-.756-1.782-1.134-3.875-1.134-6.278 0-2.35.385-4.395 1.154-6.137.783-1.756 1.87-3.113 3.261-4.071 1.404-.972 3.038-1.459 4.902-1.459 2.106 0 3.78.554 5.023 1.661 1.255 1.094 2.066 2.35 2.43 3.767h4.78a12.048 12.048 0 0 0-.216-1.15 10.374 10.374 0 0 0-1.87-3.954c-1.12-1.458-2.559-2.592-4.314-3.402-1.756-.81-3.727-1.215-5.914-1.215-2.809 0-5.266.688-7.373 2.065-2.093 1.364-3.727 3.261-4.901 5.692-1.162 2.417-1.742 5.205-1.742 8.365 0 3.105.567 5.867 1.701 8.284 1.134 2.417 2.755 4.314 4.861 5.691 2.107 1.377 4.618 2.066 7.535 2.066 2.295 0 4.307-.425 6.035-1.276 1.742-.864 3.14-2.025 4.193-3.484Zm30.3-28.148h7.08v33.41h-7.08v-3.133c-.559.61-1.195 1.17-1.905 1.681l-.005.004c-1.777 1.262-3.97 1.853-6.5 1.853-2.117 0-4.044-.465-5.748-1.424l-.007-.004c-1.73-.989-3.068-2.464-4.023-4.373l-.001-.003c-.966-1.947-1.416-4.33-1.416-7.093V46.739h6.622v20.594c0 2.043.413 3.388 1.438 4.479 1.05 1.104 2.983 1.824 4.675 1.824.986 0 2.021-.25 3.116-.792l.004-.002c1.043-.51 1.933-1.298 2.668-2.4l.002-.004.003-.003c.69-1.019 1.078-2.377 1.078-4.156V46.74ZM61.116 72.76c-1.27-1.35-2.362-3.16-2.362-5.428V47.889h-4.322v19.768c0 2.646.432 4.84 1.296 6.582.864 1.729 2.052 3.025 3.565 3.889 1.512.85 3.24 1.276 5.185 1.276 2.35 0 4.294-.547 5.833-1.64 1.046-.753 1.905-1.614 2.577-2.585a9.66 9.66 0 0 0 .826-1.446h.324v5.266h4.78v-31.11h-4.78v18.39c0 1.945-.426 3.545-1.276 4.8-.837 1.256-1.877 2.188-3.12 2.796-1.228.607-2.437.911-3.625.911-1.985 0-3.619-.675-4.902-2.025Zm28.158 19.054V46.74h6.918v3.277c.749-.982 1.772-1.816 3.024-2.52 1.425-.81 3.252-1.162 5.386-1.162 2.821 0 5.354.708 7.558 2.152 2.196 1.44 3.889 3.47 5.09 6.046 1.206 2.587 1.789 5.595 1.789 8.993 0 3.423-.582 6.451-1.788 9.051l-.001.002c-1.2 2.573-2.883 4.608-5.063 6.061l-.004.003c-2.19 1.445-4.703 2.155-7.5 2.155-2.109 0-3.923-.347-5.355-1.135l-.004-.002-.004-.003c-1.212-.68-2.215-1.472-2.966-2.39v14.548h-7.08Zm5.93-17.596h.405c.2.323.449.695.745 1.114.224.317.475.661.754 1.033.648.85 1.573 1.614 2.775 2.289 1.202.661 2.802.992 4.8.992 2.593 0 4.881-.655 6.866-1.965 1.985-1.323 3.538-3.186 4.659-5.59 1.121-2.417 1.681-5.273 1.681-8.567 0-3.268-.56-6.103-1.681-8.507s-2.68-4.26-4.679-5.57c-1.998-1.31-4.307-1.965-6.927-1.965-2.025 0-3.632.338-4.82 1.013-1.175.662-2.08 1.418-2.714 2.269a59 59 0 0 0-.876 1.208c-.224.319-.418.604-.583.858h-.567v-4.942h-4.618v42.776h4.78V74.22ZM111 69.075l.001-.005c.633-1.66.958-3.532.958-5.626 0-2.07-.319-3.898-.936-5.502l-.002-.005-.002-.005c-.594-1.589-1.478-2.8-2.636-3.68l-.006-.003-.005-.004c-1.097-.854-2.515-1.318-4.337-1.318-1.742 0-3.123.438-4.215 1.251l-.005.005c-1.122.823-1.998 1.996-2.606 3.577v.003c-.614 1.581-.936 3.467-.936 5.68 0 2.239.328 4.167.956 5.805.624 1.613 1.511 2.825 2.641 3.691 1.093.824 2.459 1.264 4.165 1.264 1.787 0 3.191-.466 4.291-1.332 1.167-.923 2.064-2.173 2.674-3.796Zm-1.962 4.698c-1.337 1.054-3.004 1.58-5.003 1.58-1.917 0-3.538-.5-4.86-1.499-1.324-1.012-2.33-2.41-3.019-4.192-.688-1.796-1.033-3.869-1.033-6.218 0-2.323.338-4.355 1.013-6.097.675-1.755 1.674-3.119 2.998-4.091 1.323-.986 2.957-1.479 4.901-1.479 2.026 0 3.707.52 5.043 1.56 1.351 1.026 2.357 2.424 3.018 4.192.675 1.756 1.013 3.727 1.013 5.915 0 2.214-.344 4.226-1.033 6.035-.675 1.796-1.688 3.228-3.038 4.294Zm42.505-18.139-6.471 1.831-.373-.988a6.835 6.835 0 0 0-1.026-1.785l-.008-.01-.007-.01c-.39-.523-.943-.982-1.699-1.36-.681-.34-1.63-.547-2.908-.547-1.726 0-3.07.396-4.106 1.113l-.002.001c-.995.685-1.386 1.454-1.386 2.354 0 .869.296 1.464.863 1.916.674.538 1.837 1.062 3.611 1.505h.002l4.61 1.133h.002c2.896.703 5.196 1.81 6.764 3.41 1.603 1.619 2.377 3.697 2.377 6.133 0 2.02-.587 3.85-1.76 5.457-1.148 1.59-2.737 2.816-4.716 3.696-1.997.888-4.282 1.314-6.827 1.314-3.337 0-6.2-.725-8.513-2.257-2.355-1.56-3.831-3.844-4.441-6.76l-.226-1.082 6.717-1.68.285 1.106c.376 1.457 1.057 2.456 1.992 3.109.97.667 2.307 1.051 4.105 1.051 2.075 0 3.581-.44 4.633-1.2 1.099-.796 1.509-1.626 1.509-2.51 0-.779-.258-1.382-.783-1.887l-.003-.004-.004-.003c-.547-.537-1.48-1.022-2.939-1.362h-.001l-5.188-1.216c-2.965-.703-5.3-1.825-6.851-3.47l-.003-.004-.004-.004c-1.541-1.666-2.291-3.743-2.291-6.148 0-1.986.563-3.779 1.7-5.336l.004-.006c1.13-1.527 2.652-2.705 4.525-3.545l.003-.002c1.897-.844 4.018-1.253 6.342-1.253 3.234 0 5.928.708 7.95 2.262 1.96 1.497 3.346 3.474 4.158 5.894l.384 1.144Zm-5.241-6.125c-1.756-1.35-4.173-2.026-7.251-2.026-2.188 0-4.146.385-5.874 1.155-1.715.77-3.072 1.83-4.071 3.18-.986 1.35-1.479 2.903-1.479 4.658 0 2.147.662 3.936 1.985 5.368 1.337 1.417 3.43 2.464 6.279 3.14l5.185 1.214c1.566.365 2.727.919 3.484 1.661.756.73 1.134 1.634 1.134 2.714 0 1.337-.662 2.485-1.985 3.443-1.31.946-3.079 1.418-5.307 1.418-1.958 0-3.544-.418-4.759-1.255-1.202-.838-2.019-2.094-2.451-3.768l-4.537 1.134a11.771 11.771 0 0 0 .289 1.113c.663 2.105 1.883 3.746 3.661 4.923 2.079 1.377 4.705 2.066 7.878 2.066 2.417 0 4.537-.405 6.36-1.215 1.823-.81 3.241-1.918 4.254-3.322 1.026-1.404 1.539-2.998 1.539-4.78 0-2.174-.682-3.95-2.046-5.327-1.364-1.39-3.436-2.423-6.218-3.099l-4.618-1.134c-1.836-.459-3.186-1.033-4.051-1.721-.864-.689-1.296-1.627-1.296-2.816 0-1.336.628-2.437 1.884-3.301 1.269-.878 2.856-1.317 4.76-1.317 1.39 0 2.531.223 3.422.669.892.445 1.594 1.012 2.107 1.701.527.675.925 1.37 1.195 2.086l4.294-1.215a12.79 12.79 0 0 0-.417-1.077 10.743 10.743 0 0 0-3.35-4.27Z" clip-rule="evenodd"/><path fill="#00F" d="m11.819 44.502-9.48-31.11h5.024l6.724 23.818h.324l6.644-23.819h5.104L32.72 37.13h.324l6.724-23.738h5.023l-9.479 31.11h-4.699l-6.805-23.9h-.486l-6.805 23.9h-4.7Zm46.924-18.715v18.715h-4.78V3.02h4.78v15.231h.406c.729-1.607 1.822-2.883 3.28-3.828 1.473-.959 3.43-1.438 5.874-1.438 2.12 0 3.977.425 5.57 1.276 1.594.837 2.83 2.127 3.707 3.869.891 1.728 1.337 3.929 1.337 6.602V44.5h-4.78V25.058c0-2.471-.642-4.382-1.924-5.732-1.27-1.364-3.032-2.046-5.287-2.046-1.566 0-2.97.33-4.213.992-1.228.662-2.2 1.628-2.916 2.897-.702 1.269-1.053 2.808-1.053 4.618Zm31.77 18.715v-31.11h4.78v31.11h-4.78Zm2.43-36.296a3.398 3.398 0 0 1-2.41-.952c-.661-.635-.992-1.397-.992-2.289 0-.89.33-1.654.993-2.288a3.398 3.398 0 0 1 2.41-.952c.931 0 1.728.317 2.39.952.675.634 1.012 1.397 1.012 2.288 0 .892-.337 1.654-1.012 2.29-.662.634-1.459.951-2.39.951Zm27.487 5.185v4.051h-16.123v-4.05h16.123Zm-11.424-7.453h4.78V35.59c0 1.35.196 2.363.588 3.038.405.661.918 1.107 1.539 1.337a6.182 6.182 0 0 0 2.005.324c.527 0 .959-.027 1.296-.081l.811-.162.972 4.294c-.324.121-.777.243-1.357.364-.581.135-1.317.203-2.208.203-1.35 0-2.674-.29-3.97-.871-1.283-.58-2.349-1.465-3.2-2.654-.837-1.188-1.256-2.687-1.256-4.496V5.938Zm34.175 39.212c-2.997 0-5.583-.662-7.757-1.985-2.161-1.337-3.828-3.2-5.003-5.59-1.161-2.404-1.742-5.199-1.742-8.386 0-3.186.581-5.995 1.742-8.425 1.175-2.444 2.809-4.348 4.902-5.712 2.106-1.377 4.563-2.066 7.372-2.066 1.62 0 3.22.27 4.8.81 1.58.54 3.018 1.418 4.314 2.633 1.297 1.202 2.33 2.795 3.099 4.78.77 1.985 1.155 4.43 1.155 7.332v2.026h-23.981v-4.132h19.12c0-1.755-.351-3.322-1.053-4.7a7.94 7.94 0 0 0-2.958-3.26c-1.269-.797-2.768-1.195-4.496-1.195-1.904 0-3.551.473-4.942 1.418a9.332 9.332 0 0 0-3.18 3.645 10.706 10.706 0 0 0-1.114 4.821v2.755c0 2.349.405 4.34 1.215 5.975.824 1.62 1.965 2.855 3.423 3.706 1.459.837 3.153 1.256 5.084 1.256 1.256 0 2.39-.176 3.403-.527a7.287 7.287 0 0 0 2.653-1.62c.743-.73 1.317-1.634 1.722-2.714l4.618 1.296a10.235 10.235 0 0 1-2.451 4.132c-1.148 1.175-2.566 2.093-4.253 2.755-1.688.648-3.585.972-5.692.972Z"/><path fill="#00F" fill-rule="evenodd" d="M10.967 45.651.787 12.242h7.446l6.01 21.29 5.938-21.29h6.853l5.86 21.2 6.006-21.2h7.445l-10.18 33.41h-6.419l-6.18-21.704-6.18 21.704h-6.42Zm12.356-25.05h.486l6.805 23.9h4.7l9.478-31.11H39.77L33.045 37.13h-.324l-6.562-23.738h-5.104L14.41 37.21h-.324L7.363 13.391H2.34l9.479 31.11h4.699l6.805-23.9Zm36.57 25.05h-6.602V1.871h6.602v13.19a10.026 10.026 0 0 1 1.91-1.601c1.718-1.119 3.918-1.624 6.5-1.624 2.275 0 4.322.457 6.108 1.41 1.82.957 3.218 2.429 4.193 4.362 1 1.94 1.463 4.336 1.463 7.125v20.918h-7.08V25.057c0-2.275-.588-3.865-1.608-4.94l-.004-.004-.004-.004c-1.007-1.082-2.437-1.68-4.445-1.68-1.398 0-2.613.295-3.67.857-1.026.553-1.842 1.358-2.455 2.443-.586 1.061-.908 2.398-.908 4.058V45.65Zm-.096-24.482c.715-1.27 1.688-2.235 2.916-2.897 1.243-.661 2.647-.992 4.213-.992 2.255 0 4.017.682 5.287 2.046 1.282 1.35 1.924 3.26 1.924 5.732v19.444h4.78V24.733c0-2.673-.446-4.874-1.337-6.602-.878-1.742-2.113-3.032-3.707-3.869-1.593-.85-3.45-1.276-5.57-1.276-2.444 0-4.401.48-5.873 1.438a8.734 8.734 0 0 0-2.537 2.486c-.28.418-.528.866-.744 1.342h-.406V3.021h-4.302v41.48h4.302V25.788c0-1.81.352-3.349 1.054-4.618ZM89.363 45.65V12.24h7.08v33.41h-7.08Zm.379-37.563-.005-.004c-.88-.844-1.346-1.904-1.346-3.119 0-1.214.466-2.274 1.346-3.118l.005-.004.004-.004A4.547 4.547 0 0 1 92.944.575c1.22 0 2.302.427 3.181 1.267.894.842 1.371 1.903 1.371 3.123 0 1.22-.477 2.281-1.37 3.123-.88.841-1.961 1.268-3.182 1.268a4.547 4.547 0 0 1-3.198-1.264l-.004-.004Zm5.592-.834c.675-.634 1.012-1.397 1.012-2.289 0-.89-.337-1.654-1.012-2.288-.662-.635-1.459-.952-2.39-.952-.932 0-1.735.317-2.41.952-.662.634-.993 1.397-.993 2.288 0 .892.33 1.655.992 2.29a3.399 3.399 0 0 0 2.41.951c.932 0 1.73-.317 2.39-.952Zm26.246 4.987v6.35h-6.644v17c0 1.265.189 2.033.426 2.45.289.467.605.715.937.841.505.17 1.043.258 1.619.258a7.48 7.48 0 0 0 1.094-.064l1.886-.377 1.442 6.366-.94.352c-.401.15-.914.286-1.513.411-.694.16-1.521.23-2.455.23-1.521 0-3.004-.329-4.44-.972l-.004-.002c-1.474-.667-2.697-1.685-3.661-3.031l-.003-.004-.002-.003c-1.004-1.425-1.466-3.171-1.466-5.159V18.592h-4.699v-6.35h4.699V4.787h7.08v7.453h6.644Zm-7.794 1.15h6.644v4.051h-6.644V35.59c0 1.35.196 2.363.588 3.038.405.661.918 1.107 1.539 1.337a6.18 6.18 0 0 0 2.005.324c.527 0 .959-.027 1.296-.081l.811-.162.972 4.294c-.324.121-.777.243-1.357.364-.581.135-1.317.203-2.208.203-1.35 0-2.674-.29-3.97-.871-1.283-.58-2.349-1.465-3.2-2.654-.837-1.188-1.256-2.687-1.256-4.496V17.442h-4.699v-4.05h4.699V5.937h4.78v7.453Zm21.036 30.754-.003-.002c-2.353-1.456-4.165-3.487-5.43-6.061l-.003-.007c-1.25-2.587-1.857-5.559-1.857-8.886 0-3.327.607-6.31 1.854-8.921l.002-.003c1.257-2.616 3.025-4.688 5.309-6.176 2.315-1.513 4.996-2.253 8.001-2.253 1.751 0 3.476.292 5.172.872 1.743.596 3.32 1.562 4.726 2.88 1.447 1.342 2.568 3.092 3.387 5.206.836 2.156 1.233 4.75 1.233 7.747v3.176h-22.512c.153 1.42.493 2.635 1.001 3.66.731 1.436 1.722 2.498 2.971 3.228 1.259.722 2.749 1.1 4.508 1.1 1.148 0 2.151-.16 3.022-.461a6.133 6.133 0 0 0 2.232-1.36c.609-.598 1.095-1.354 1.447-2.293l.371-.989 6.772 1.901-.35 1.129a11.388 11.388 0 0 1-2.722 4.59l-.005.005c-1.272 1.302-2.832 2.306-4.656 3.021l-.007.003c-1.839.706-3.879 1.049-6.104 1.049-3.17 0-5.971-.702-8.355-2.153l-.004-.002Zm11.762-3.816c-1.013.351-2.147.527-3.403.527-1.931 0-3.625-.419-5.084-1.256-1.458-.85-2.599-2.086-3.423-3.706-.594-1.2-.971-2.592-1.129-4.177a17.477 17.477 0 0 1-.075-1.15h22.593V28.54c0-2.903-.385-5.347-1.155-7.332-.769-1.985-1.802-3.578-3.099-4.78-1.296-1.215-2.734-2.093-4.314-2.633s-3.18-.81-4.8-.81c-2.809 0-5.266.689-7.373 2.066-2.092 1.364-3.726 3.268-4.901 5.712-1.161 2.43-1.742 5.239-1.742 8.425 0 3.187.581 5.982 1.742 8.386 1.175 2.39 2.842 4.253 5.003 5.59 2.174 1.323 4.76 1.985 7.757 1.985 2.107 0 4.004-.324 5.692-.972 1.687-.662 3.105-1.58 4.253-2.755a10.238 10.238 0 0 0 2.451-4.132l-4.618-1.296c-.405 1.08-.979 1.985-1.722 2.714a7.288 7.288 0 0 1-2.653 1.62Zm-13.102-13.894h17.72c0-.393-.018-.776-.053-1.15-.122-1.297-.455-2.48-1-3.55a7.94 7.94 0 0 0-2.958-3.26c-1.269-.797-2.768-1.195-4.496-1.195-1.904 0-3.551.473-4.942 1.418a9.332 9.332 0 0 0-3.18 3.645 10.587 10.587 0 0 0-1.091 4.092Zm1.301-1.15a9.463 9.463 0 0 1 .82-2.431 8.181 8.181 0 0 1 2.794-3.204l.002-.001c1.176-.8 2.591-1.22 4.296-1.22 1.546 0 2.826.355 3.885 1.02l.005.003a6.785 6.785 0 0 1 2.535 2.798l.002.004.002.004c.458.899.752 1.904.869 3.027h-15.21ZM90.513 44.5h4.78V13.39h-4.78V44.5Z" clip-rule="evenodd"/></svg>